<?xml version="1.0" standalone="no"?><!DOCTYPE svg PUBLIC "-//W3C//DTD SVG 1.1//EN" "http://www.w3.org/Graphics/SVG/1.1/DTD/svg11.dtd"><svg t="1649849283861" class="icon" viewBox="0 0 1024 1024" version="1.1" xmlns="http://www.w3.org/2000/svg" p-id="3130" width="32" height="32" xmlns:xlink="http://www.w3.org/1999/xlink"><defs><style type="text/css"></style></defs><path d="M853.3 510.4c-53.4-103.6-150.1-158.2-216-122-7.6 4.2-26.2 44-111.9 44s-104.2-39.8-111.9-44c-66-36.2-162.7 18.4-216 122-53.4 103.6-43.2 216.8 22.8 253 54.4 29.9 129.8 3.4 184.4-66.1 39.5-51.5 82.2-66.2 120.7-66.2s81.2 14.7 120.6 65.4c54.7 70.3 130.1 96.8 184.5 66.9 66-36.1 76.2-149.4 22.8-253z" fill="#4DBBF7" p-id="3131"></path><path d="M819.9 452.8C775.6 366.8 702.8 313 640.1 313c-16.6 0-32.5 3.8-47 11.7-8 4.4-27.5 46.2-117.5 46.2-89.9 0-109.5-41.8-117.5-46.2-14.5-8-30.4-11.7-47-11.7-62.8 0-135.5 53.8-179.8 139.8-56 108.7-45.3 227.7 23.9 265.7 15.7 8.6 33 12.7 51 12.7 47.9 0 101-29.2 142.6-82.1 41.5-54.1 86.3-69.5 126.7-69.5 40.4 0 85.3 15.5 126.6 68.7 41.7 53.6 94.9 83 142.8 83 18 0 35.3-4.2 50.9-12.7 69.4-38.1 80.1-157 24.1-265.8z m-41.4 233.9c-10 5.5-21.3 8.3-33.5 8.3-37.9 0-80.6-25.8-114.2-69-42.6-54.9-94.9-82.7-155.2-82.7-60.6 0-112.9 28.2-155.2 83.4-33.6 42.8-76.3 68.3-114.1 68.3-12.3 0-23.6-2.8-33.6-8.3-51.2-28.1-55.4-127.6-9.2-217.3 36.5-70.8 97.2-120.2 147.6-120.2 9.4 0 18.2 1.8 26.1 5.5 13.4 14.6 48.6 52.5 138.4 52.5 89.8 0 125-37.9 138.4-52.5 7.9-3.6 16.6-5.5 26.1-5.5 50.4 0 111.2 49.4 147.6 120.2 46.2 89.7 42.1 189.3-9.2 217.3z" fill="" p-id="3132"></path><path d="M318 473.9h-36.2v-36.2c0-10-8.1-18.1-18.1-18.1s-18.1 8.1-18.1 18.1v36.2h-36.2c-10 0-18.1 8.1-18.1 18.1 0 10 8.1 18.1 18.1 18.1h36.2v36.2c0 10 8.1 18.1 18.1 18.1s18.1-8.1 18.1-18.1v-36.2H318c10 0 18.1-8.1 18.1-18.1 0-10-8.1-18.1-18.1-18.1z" fill="" p-id="3133"></path><path d="M642.8 433.2m-18.1 0a18.1 18.1 0 1 0 36.2 0 18.1 18.1 0 1 0-36.2 0Z" fill="" p-id="3134"></path><path d="M642.8 541.8m-18.1 0a18.1 18.1 0 1 0 36.2 0 18.1 18.1 0 1 0-36.2 0Z" fill="" p-id="3135"></path><path d="M574.9 478.4m-22.6 0a22.6 22.6 0 1 0 45.2 0 22.6 22.6 0 1 0-45.2 0Z" fill="" p-id="3136"></path><path d="M710.7 478.4m-22.6 0a22.6 22.6 0 1 0 45.2 0 22.6 22.6 0 1 0-45.2 0Z" fill="" p-id="3137"></path></svg>